<svg xmlns="http://www.w3.org/2000/svg" width="302" height="289" fill="none"><g clip-path="url(#a)"><path fill="#E7E7E7" d="M68.13 74.569c-.237.802-4.338 7.256-10.244 9.45-5.907 2.192-10.302 4.617-8.66 7.519 1.643 2.9 8.898 1.316 8.898 1.316s-14.723 15.997-.866 25.14c16.93 11.147 34.574-28.756 34.574-28.756L68.13 74.568Z"/><path fill="#DEDEDE" d="M89.036 94.733c-.05.075-5.643-3.246-12.453-7.413-6.809-4.167-12.327-7.613-12.276-7.688.05-.076 5.643 3.245 12.446 7.413 6.803 4.167 12.346 7.613 12.283 7.688ZM86.433 99.514c-.044.076-6.063-3.452-13.443-7.882s-13.33-8.084-13.286-8.147c.044-.062 6.07 3.46 13.45 7.89 7.38 4.43 13.323 8.064 13.28 8.14ZM83.273 104.051c-.043.076-6.803-3.897-15.098-8.879-8.295-4.982-14.98-9.073-14.93-9.149.051-.075 6.804 3.898 15.1 8.873 8.295 4.976 14.979 9.08 14.928 9.155ZM79.33 109.66c-.044.075-5.286-3.133-11.7-7.131-6.415-3.998-11.575-7.326-11.531-7.4.044-.076 5.286 3.132 11.7 7.13 6.414 3.998 11.58 7.326 11.53 7.401ZM74.696 115.08c-.05.075-4.928-3.07-10.891-7.024-5.963-3.955-10.772-7.219-10.722-7.294.05-.076 4.928 3.07 10.872 7.018s10.791 7.225 10.741 7.3ZM68.783 118.84a4.108 4.108 0 0 1-.74-.345c-.464-.244-1.135-.627-1.95-1.065a155.233 155.233 0 0 1-6.27-3.76 115.481 115.481 0 0 1-6.063-4.117 64.464 64.464 0 0 1-1.78-1.328 3.975 3.975 0 0 1-.628-.527c.248.117.484.26.702.426l1.837 1.254c1.55 1.052 3.7 2.506 6.101 4.035a349.9 349.9 0 0 0 6.214 3.86l1.881 1.147c.245.118.478.258.696.42ZM54.92 93.236c-1.172-.3-2.28-.807-3.273-1.498a9.957 9.957 0 0 1-2.74-2.325c.062-.069 1.254 1.01 2.91 2.056 1.654 1.046 3.134 1.679 3.103 1.767Z"/><path fill="#DEDEDE" d="M90.735 88.423c-.056.124-.127.24-.213.345l-.627.959c-.577.827-1.423 2.011-2.508 3.465a340.044 340.044 0 0 1-8.534 11.185c-3.417 4.293-6.621 8.146-8.972 10.847a173.576 173.576 0 0 1-2.822 3.202l-.777.859a2.024 2.024 0 0 1-.289.282c.064-.12.144-.229.238-.326l.734-.896 2.74-3.265a610.724 610.724 0 0 0 8.897-10.897 534.722 534.722 0 0 0 8.603-11.129l2.57-3.403.703-.92c.076-.11.162-.214.257-.308ZM85.944 85.008c.07.056-5.806 7.714-13.117 17.101-7.31 9.387-13.261 16.95-13.368 16.912-.106-.037 5.806-7.713 13.117-17.107 7.312-9.393 13.325-16.962 13.368-16.906ZM79.26 81.223a2.128 2.128 0 0 1-.194.376c-.15.276-.351.627-.627 1.06a83.028 83.028 0 0 1-2.357 3.81c-2.05 3.176-5.104 7.431-8.697 11.943-3.593 4.511-6.998 8.478-9.45 11.354-1.216 1.41-2.206 2.563-2.927 3.39l-.778.89a1.99 1.99 0 0 1-.3.307c.074-.121.158-.236.25-.345l.759-.952 2.846-3.453c2.408-2.914 5.781-6.893 9.406-11.41 3.624-4.519 6.665-8.723 8.778-11.869a114.162 114.162 0 0 0 2.439-3.76c.27-.426.489-.764.627-1.027.065-.112.14-.217.225-.314ZM73.774 78.084c.07.05-4.934 6.673-11.18 14.782-6.244 8.109-11.36 14.65-11.43 14.594-.069-.056 4.935-6.673 11.18-14.788s11.361-14.644 11.43-14.588ZM69.648 75.396a6.16 6.16 0 0 1-.526.883c-.176.282-.402.627-.684.997-.282.37-.577.827-.96 1.253a34.56 34.56 0 0 1-2.783 3.095 37.71 37.71 0 0 1-3.875 3.334 37.357 37.357 0 0 1-4.326 2.713 32.68 32.68 0 0 1-3.762 1.73c-.546.232-1.06.388-1.505.539-.445.15-.834.263-1.16.35-.327.103-.66.182-.997.239.31-.149.633-.269.965-.357.314-.1.696-.232 1.129-.401.433-.17.947-.339 1.486-.577a39.282 39.282 0 0 0 3.762-1.78 40.194 40.194 0 0 0 4.27-2.713 40.432 40.432 0 0 0 3.869-3.258 37.46 37.46 0 0 0 2.815-3.033c.389-.439.702-.871.99-1.253.29-.383.534-.69.722-.96.17-.28.36-.549.57-.801ZM98.334 66.58H19.701v8.296h78.633v-8.297Z"/><path fill="#EFEEEE" d="M44.63 74.569c-.237.802-4.338 7.256-10.245 9.45-5.906 2.192-10.301 4.617-8.665 7.519 1.637 2.9 8.904 1.316 8.904 1.316s-14.729 15.997-.866 25.14c16.93 11.147 34.574-28.756 34.574-28.756L44.63 74.568Z"/><path fill="#DEDEDE" d="M65.548 94.733c-.044.075-5.643-3.246-12.446-7.413s-12.346-7.613-12.284-7.688c.063-.076 5.644 3.245 12.453 7.413 6.81 4.167 12.327 7.613 12.277 7.688ZM62.933 99.514c-.044.076-6.07-3.452-13.449-7.882-7.38-4.43-13.324-8.084-13.28-8.147.044-.062 6.063 3.46 13.45 7.89 7.385 4.43 13.323 8.064 13.28 8.14ZM59.773 104.051c-.044.076-6.803-3.897-15.099-8.879-8.295-4.982-14.979-9.073-14.935-9.149.044-.075 6.81 3.898 15.098 8.873 8.29 4.976 14.98 9.08 14.936 9.155ZM55.804 109.66c-.044.075-5.286-3.133-11.7-7.131s-11.556-7.326-11.5-7.4c.057-.076 5.286 3.132 11.7 7.13 6.415 3.998 11.575 7.326 11.5 7.401ZM51.196 115.08c-.05.075-4.929-3.07-10.898-7.024-5.97-3.955-10.766-7.219-10.716-7.294.05-.076 4.904 3.07 10.898 7.018s10.766 7.225 10.716 7.3ZM45.276 118.84a4.483 4.483 0 0 1-.758-.345c-.47-.244-1.135-.627-1.95-1.065a155.233 155.233 0 0 1-6.27-3.76 114.972 114.972 0 0 1-6.057-4.117 64.464 64.464 0 0 1-1.781-1.328 3.984 3.984 0 0 1-.627-.527c.246.118.479.261.696.426l1.837 1.254c1.555 1.052 3.7 2.506 6.107 4.035a349.86 349.86 0 0 0 6.214 3.86l1.88 1.147c.252.113.49.253.71.42ZM31.413 93.236c-1.17-.3-2.276-.808-3.266-1.498a10.03 10.03 0 0 1-2.74-2.325c.069-.069 1.254 1.01 2.915 2.056 1.662 1.046 3.13 1.679 3.091 1.767Z"/><path fill="#DEDEDE" d="M67.234 88.423c-.059.122-.13.238-.213.345l-.627.959c-.57.827-1.423 2.011-2.508 3.465a341.283 341.283 0 0 1-8.54 11.185c-3.423 4.293-6.615 8.146-8.972 10.847a156.044 156.044 0 0 1-2.816 3.202c-.32.357-.583.627-.783.859-.085.105-.181.2-.289.282a2.05 2.05 0 0 1 .245-.326l.733-.896 2.74-3.265a587.206 587.206 0 0 0 8.892-10.897 560.635 560.635 0 0 0 8.608-11.129l2.565-3.403c.295-.375.527-.682.708-.92.074-.113.16-.216.257-.308ZM62.444 85.008c.069.056-5.806 7.714-13.117 17.101-7.311 9.387-13.299 16.963-13.368 16.919-.069-.044 5.8-7.714 13.117-17.107 7.317-9.393 13.293-16.97 13.368-16.913ZM55.754 81.223c-.048.133-.111.259-.188.376-.157.276-.352.627-.627 1.06a89.078 89.078 0 0 1-2.358 3.81c-2.05 3.176-5.104 7.431-8.703 11.943-3.599 4.511-6.966 8.478-9.392 11.354l-2.922 3.39-.84.89a2.21 2.21 0 0 1-.295.307c.072-.123.156-.238.25-.345l.76-.952 2.846-3.453c2.408-2.914 5.78-6.893 9.367-11.41 3.587-4.519 6.672-8.723 8.779-11.869a114.162 114.162 0 0 0 2.439-3.76c.27-.426.489-.764.627-1.027.076-.112.162-.217.257-.314ZM50.274 78.084c.069.05-4.935 6.673-11.18 14.782s-11.361 14.65-11.43 14.594c-.07-.056 4.94-6.673 11.21-14.788 6.27-8.115 11.325-14.644 11.4-14.588ZM46.142 75.396c-.15.308-.324.603-.52.883a12.63 12.63 0 0 1-.684.997c-.282.37-.583.827-.96 1.253a34.558 34.558 0 0 1-2.783 3.095 37.826 37.826 0 0 1-3.888 3.309 37.298 37.298 0 0 1-4.32 2.713 33.173 33.173 0 0 1-3.762 1.73c-.552.232-1.066.388-1.511.539-.445.15-.834.263-1.154.35a7.455 7.455 0 0 1-1.003.239c.31-.148.634-.267.966-.358.313-.1.696-.231 1.135-.4.438-.17.94-.339 1.48-.577a38.623 38.623 0 0 0 3.761-1.78 40.865 40.865 0 0 0 4.27-2.713 41.234 41.234 0 0 0 3.869-3.258 39.9 39.9 0 0 0 2.815-3.033c.39-.439.703-.871.991-1.254.288-.382.533-.689.721-.958.176-.27.369-.53.577-.777ZM61.573 25.059h-5.03v5.025h5.03V25.06Z"/><path fill="#EFEEEE" d="M82.615 36.777H35.746V66.34h46.87V36.777ZM35.74 36.777s7.173-7.52 25.162-7.194c17.989.326 21.7 7.194 21.7 7.194H35.74Z"/><path fill="#DEDEDE" d="M82.433 37.253c0 .094-10.54.163-23.532.163-12.991 0-23.531-.07-23.531-.163 0-.094 10.533-.157 23.531-.157s23.532.07 23.532.157ZM82.433 37.26h10.553a1.731 1.731 0 0 1 1.73 1.729v.583a1.73 1.73 0 0 1-1.73 1.729H82.433v-4.042Z"/><path fill="#DEDEDE" d="M35.915 41.301H25.362a1.731 1.731 0 0 1-1.73-1.73v-.582a1.729 1.729 0 0 1 1.73-1.73h10.553v4.042ZM64.281 23.611H54.08c-.686 0-1.242.556-1.242 1.241v.414c0 .685.556 1.24 1.242 1.24H64.28c.686 0 1.242-.555 1.242-1.24v-.414c0-.685-.556-1.24-1.242-1.24Z"/><path fill="#EFEEEE" d="M287.629 216.148H16.917v72.576h270.712v-72.576Z"/><path fill="#DEDEDE" d="M289.504 213.134H13.474v8.829h276.03v-8.829Z"/><path fill="#E7E7E7" d="M98.83 233.801H27.625v21.975h71.203v-21.975Z"/><path fill="#DEDEDE" d="M63.228 246.628a1.837 1.837 0 1 0 0-3.673 1.837 1.837 0 0 0 0 3.673Z"/><path fill="#E7E7E7" d="M98.83 260.413H27.625v21.976h71.203v-21.976Z"/><path fill="#DEDEDE" d="M63.228 273.234a1.837 1.837 0 1 0 0-3.673 1.837 1.837 0 0 0 0 3.673Z"/><path fill="#E7E7E7" d="M273.245 233.801h-71.203v21.975h71.203v-21.975Z"/><path fill="#DEDEDE" d="M237.644 246.628a1.837 1.837 0 1 0 0-3.674 1.837 1.837 0 0 0 0 3.674Z"/><path fill="#E7E7E7" d="M273.245 260.413h-71.203v21.976h71.203v-21.976Z"/><path fill="#DEDEDE" d="M237.644 273.234a1.837 1.837 0 1 0 0-3.674 1.837 1.837 0 0 0 0 3.674Z"/><path fill="#E7E7E7" d="M101.037 288.875v-14.826c0-9.556-.038-23.33-.069-40.223v-.126h.125l92.967-.037h.169V289.025h-.15l-66.99-.075-19.243-.075h-6.828H107.94l19.193-.044 66.89-.075-.151.156v-55.049l.163.163-92.967-.031.132-.132c0 16.863-.05 30.605-.069 40.148 0 4.769 0 8.491-.032 11.022v2.883c-.05.589-.062.959-.062.959Z"/><path fill="#DEDEDE" d="M59.134 186.779a6.948 6.948 0 0 1-4.284 6.429 6.954 6.954 0 0 1-9.095-9.073 6.947 6.947 0 0 1 6.425-4.293 6.956 6.956 0 0 1 6.954 6.937Z"/><path fill="#EFEEEE" d="M65.742 193.615a6.951 6.951 0 0 0 6.954-6.949 6.952 6.952 0 0 0-6.954-6.95 6.952 6.952 0 0 0-6.953 6.95 6.951 6.951 0 0 0 6.953 6.949ZM38.618 193.615a6.951 6.951 0 0 0 6.953-6.949 6.952 6.952 0 0 0-6.953-6.95 6.952 6.952 0 0 0-6.954 6.95 6.951 6.951 0 0 0 6.954 6.949Z"/><path fill="#E7E7E7" d="M29.375 188.157h45.409s-.47 18.717-12.66 21.005l-.188 3.972H41.483v-4.041s-12.107-3.102-12.107-20.936Z"/><path fill="#fff" d="M62.124 209.162c0 .062-4.633.119-10.352.119-5.718 0-10.352-.057-10.352-.119 0-.063 4.634-.12 10.352-.12 5.719 0 10.352.057 10.352.12ZM73.022 197.801s-.094 0-.289.037l-.853.076a11.694 11.694 0 0 1-3.298-.163 6.513 6.513 0 0 1-2.22-.89 5.046 5.046 0 0 1-1.88-2.118 3.677 3.677 0 0 1-.314-1.56 2.751 2.751 0 0 1 .57-1.605c.191-.239.433-.432.71-.563.291-.127.613-.168.927-.12a2.226 2.226 0 0 1 1.524 1.116c.31.606.402 1.302.257 1.967a5.549 5.549 0 0 1-.777 1.924 6.893 6.893 0 0 1-3.386 2.732 6.607 6.607 0 0 1-4.64-.05 6.959 6.959 0 0 1-2.107-1.284 4.73 4.73 0 0 1-1.442-2.1 2.347 2.347 0 0 1 0-1.316 1.76 1.76 0 0 1 .834-1.059 2.168 2.168 0 0 1 2.508.577 4.784 4.784 0 0 1 1.06 2.506c.14.919.11 1.856-.088 2.764a8.084 8.084 0 0 1-2.935 4.75 7.3 7.3 0 0 1-2.608 1.253 8.238 8.238 0 0 1-2.934.194 7.748 7.748 0 0 1-5.104-2.638 5.5 5.5 0 0 1-1.254-2.575 3.716 3.716 0 0 1 .576-2.745 2.826 2.826 0 0 1 2.42-1.303 2.646 2.646 0 0 1 2.24 1.485c.19.43.221.915.087 1.366-.133.438-.38.834-.715 1.147a5.283 5.283 0 0 1-2.3 1.209 9.485 9.485 0 0 1-9.036-2.256 5.272 5.272 0 0 1-1.223-1.88 3.756 3.756 0 0 1-.125-2.155 3.03 3.03 0 0 1 1.116-1.749c.559-.4 1.25-.568 1.931-.47a2.593 2.593 0 0 1 1.655.909c.393.478.614 1.074.627 1.692a2.629 2.629 0 0 1-.533 1.61 4 4 0 0 1-1.197 1.059 9.55 9.55 0 0 1-2.659 1.003c-.778.182-1.568.312-2.364.388a16.827 16.827 0 0 1-3.298 0 9.988 9.988 0 0 1-1.14-.175l.288.031c.194.032.482.063.852.094 1.095.107 2.197.107 3.292 0 .788-.082 1.57-.219 2.339-.407a9.379 9.379 0 0 0 2.62-1.003 3.9 3.9 0 0 0 1.155-1.027 2.55 2.55 0 0 0 .495-1.598 2.587 2.587 0 0 0-.59-1.592 2.406 2.406 0 0 0-1.554-.846 2.452 2.452 0 0 0-1.8.445c-.53.412-.9.998-1.04 1.654a3.535 3.535 0 0 0 .118 2.05 5.012 5.012 0 0 0 1.192 1.804 9.283 9.283 0 0 0 8.834 2.181 5.016 5.016 0 0 0 2.201-1.153c.296-.291.512-.654.627-1.053.118-.4.09-.829-.082-1.209a2.404 2.404 0 0 0-2.012-1.322c-.44-.018-.875.09-1.254.313a2.998 2.998 0 0 0-.953.908 3.478 3.478 0 0 0-.54 2.576 5.215 5.215 0 0 0 1.198 2.463 7.563 7.563 0 0 0 4.947 2.556 8.025 8.025 0 0 0 2.847-.188 7.063 7.063 0 0 0 2.508-1.253 7.871 7.871 0 0 0 2.89-4.574c.192-.882.222-1.79.088-2.682a4.574 4.574 0 0 0-1.003-2.382 1.944 1.944 0 0 0-2.251-.532 1.498 1.498 0 0 0-.727.927 2.104 2.104 0 0 0 0 1.197 4.525 4.525 0 0 0 1.367 1.999c.6.535 1.29.959 2.037 1.253a6.376 6.376 0 0 0 4.502.057 6.651 6.651 0 0 0 3.292-2.645c.371-.573.63-1.21.765-1.88a2.79 2.79 0 0 0-.238-1.879 2.023 2.023 0 0 0-1.398-1.041 1.531 1.531 0 0 0-.84.107c-.246.121-.46.297-.628.514a2.623 2.623 0 0 0-.551 1.516c-.007.517.095 1.03.3 1.504a4.86 4.86 0 0 0 1.825 2.074 6.472 6.472 0 0 0 2.176.896c1.077.216 2.178.283 3.273.201l.859-.05.25.006Z"/><path fill="#EFEEEE" d="M236.672 0H188.26v36.933h48.412V0ZM131.026 77.232l57.234-40.299h48.412l59.697 40.299v5.62H131.026v-5.62Z"/><path fill="#E7E7E7" d="M296.369 77.232H131.026v5.62h165.343v-5.62Z"/><path fill="#fff" d="m198.468 37.29-24.723 39.942h41.094l-7.292-39.941V0h-9.28l.201 37.29Z"/><path fill="#DEDEDE" d="M235.982 37.29c0 .088-10.835.163-24.203.163-13.368 0-24.209-.075-24.209-.162 0-.088 10.841-.163 24.209-.163s24.203.069 24.203.163Z"/><path fill="#fff" d="M16.917 131.93H0v16.906h16.917V131.93ZM16.917 150.873H0v16.906h16.917v-16.906ZM35.978 131.93H19.06v16.906h16.917V131.93ZM35.978 150.873H19.06v16.906h16.917v-16.906ZM55.045 131.93H38.128v16.906h16.917V131.93ZM55.045 150.873H38.128v16.906h16.917v-16.906ZM74.107 131.93H57.19v16.906h16.917V131.93ZM74.107 150.873H57.19v16.906h16.917v-16.906ZM92.88 131.93H75.961v16.906H92.88V131.93ZM92.88 150.873H75.961v16.906H92.88v-16.906ZM111.947 131.93H95.03v16.906h16.917V131.93ZM111.947 150.873H95.03v16.906h16.917v-16.906ZM131.008 131.93h-16.917v16.906h16.917V131.93ZM131.008 150.873h-16.917v16.906h16.917v-16.906ZM150.075 131.93h-16.917v16.906h16.917V131.93ZM150.075 150.873h-16.917v16.906h16.917v-16.906ZM168.842 131.93h-16.917v16.906h16.917V131.93ZM168.842 150.873h-16.917v16.906h16.917v-16.906ZM187.909 131.93h-16.917v16.906h16.917V131.93ZM187.909 150.873h-16.917v16.906h16.917v-16.906ZM206.97 131.93h-16.917v16.906h16.917V131.93ZM206.97 150.873h-16.917v16.906h16.917v-16.906ZM226.037 131.93h-16.916v16.906h16.916V131.93ZM226.037 150.873h-16.916v16.906h16.916v-16.906ZM244.81 131.93h-16.916v16.906h16.916V131.93ZM244.81 150.873h-16.916v16.906h16.916v-16.906ZM263.871 131.93h-16.916v16.906h16.916V131.93ZM263.871 150.873h-16.916v16.906h16.916v-16.906ZM282.932 131.93h-16.916v16.906h16.916V131.93ZM282.932 150.873h-16.916v16.906h16.916v-16.906ZM302 131.93h-16.917v16.906H302V131.93ZM302 150.873h-16.917v16.906H302v-16.906Z"/><path fill="#3D3D3D" d="M288.858 288.724c0 .088-61.378.163-137.077.163-75.7 0-137.084-.075-137.084-.163 0-.088 61.366-.163 137.084-.163s137.077.069 137.077.163Z"/><path fill="#fff" d="m165.983 82.364 5.869-.032a18.784 18.784 0 0 0 24.986 4.152 18.752 18.752 0 0 0 6.38-24.497 18.769 18.769 0 0 0-10.259-8.898 18.785 18.785 0 0 0-13.581.348 18.769 18.769 0 0 0-9.789 9.413 18.75 18.75 0 0 0-.872 13.548l-2.734 5.966Z"/><path fill="#3D3D3D" d="M165.983 82.364s.069-.138.188-.395l.533-1.14 2.056-4.418h-.094a.069.069 0 0 0 .082 0 .06.06 0 0 0 .01-.035 18.681 18.681 0 0 1-.512-9.24c.187-.943.447-1.871.778-2.775.367-.963.805-1.897 1.31-2.795a18.528 18.528 0 0 1 10.76-8.622 18.817 18.817 0 0 1 7.887-.627c4.4.589 8.444 2.731 11.4 6.04a18.574 18.574 0 0 1 4.721 12 18.9 18.9 0 0 1-1.793 8.366 18.373 18.373 0 0 1-4.966 6.342 18.818 18.818 0 0 1-6.596 3.496c-2.185.643-4.47.88-6.741.696l-.796-.075a5.295 5.295 0 0 1-.778-.113l-1.504-.301a27.176 27.176 0 0 1-2.753-.934 18.653 18.653 0 0 1-7.298-5.552.05.05 0 0 0-.044 0l-4.345.057h-1.524 5.869-.044a18.697 18.697 0 0 0 7.323 5.64c.906.368 1.831.686 2.772.952l1.517.307c.258.058.52.098.784.119l.802.082a18.818 18.818 0 0 0 13.506-4.211 18.368 18.368 0 0 0 5.016-6.417 19.094 19.094 0 0 0 1.831-8.472 18.783 18.783 0 0 0-2.364-8.773 8.496 8.496 0 0 0-.589-.977l-.627-.947-.709-.883a6.822 6.822 0 0 0-.733-.852l-.778-.802c-.257-.276-.564-.49-.84-.74a9.078 9.078 0 0 0-.853-.702l-.909-.626a18.507 18.507 0 0 0-7.957-2.996 18.788 18.788 0 0 0-18.854 9.4 21.034 21.034 0 0 0-1.316 2.826c-.332.916-.59 1.857-.772 2.813a18.796 18.796 0 0 0 .627 9.368l.107-.05a.069.069 0 0 0-.082 0c-.877 1.955-1.548 3.46-2.006 4.487l-.502 1.134c-.15.22-.2.345-.2.345Z"/><path fill="#FC8019" d="m177.018 71.555 2.615-2.89 5.549 4.45 8.239-9.456 2.69 2.62-11.055 12.162-8.038-6.886Z"/><path fill="#3D3D3D" d="m147.442 80.415-47.27 2.82c-2.947 10.49-3.373 20.61-.151 31.005.916 2.964 2.27 6.097 5.393 7.821 2.79 1.541 6.408 1.635 9.806 1.598a231.48 231.48 0 0 0 48.825-5.728c-3.135-1.736-4.928-4.919-4.514-7.983 1.354 3.001 5.198 5.051 9.161 5.176a14.02 14.02 0 0 0 5.578-.984 14.009 14.009 0 0 0 4.73-3.114c-13.469-6.11-31.238-18.116-31.558-30.611Z"/><path fill="#3D3D3D" d="M178.699 100.26a2.046 2.046 0 0 1-.414 0c-.27 0-.665 0-1.173-.037a51.546 51.546 0 0 1-4.314-.408 38.44 38.44 0 0 1-13.556-4.386 27.986 27.986 0 0 1-6.238-4.813 23.997 23.997 0 0 1-3.831-5.157 19.864 19.864 0 0 1-1.681-3.998c-.157-.488-.219-.883-.288-1.14a1.759 1.759 0 0 1-.069-.407c.031 0 .163.545.483 1.51a21.742 21.742 0 0 0 1.755 3.922 24.339 24.339 0 0 0 3.85 5.064 28.653 28.653 0 0 0 6.176 4.73 39.733 39.733 0 0 0 13.431 4.418c1.799.276 3.273.426 4.288.508l1.173.1c.139.016.276.047.408.094ZM186.9 191.66c-.176.05-13.945-4.324-13.945-4.324l-4.327 3.415 11.807 5.126s5.211.589 7.706 2.062c2.496 1.472-1.241-6.279-1.241-6.279Z"/><path fill="#3D3D3D" d="M184.78 192.512s0 .138.094.382c.395 1.435 2.358 6.561 10.509 9.519 9.543 3.459 30.347 4.424 33.802 3.885 6.678-1.053 12.917-6.266 12.66-7.563"/><path fill="#455A64" d="M241.845 198.734c-.232 2.118-13.167 2.444-28.949.727-15.782-1.717-28.347-4.831-28.115-6.949.231-2.118 13.167-2.45 28.949-.733 15.781 1.717 28.347 4.831 28.115 6.955Z"/><path fill="#FC8019" d="M221.831 197.256c1.053-1.053 2.508-1.68 1.762-2.902-.214.414-1.254.401-1.624.721-.37.319-1.38-.057-1.881-.188a1.288 1.288 0 0 1-.909-1.335 3.338 3.338 0 0 1 .677-1.548c.66-.985 1.35-1.948 2.069-2.888.297-.313.513-.694.627-1.109a.903.903 0 0 0-.627-1.009 1.635 1.635 0 0 0-1.179.294c-1.567.884-3.091 2.005-3.668 3.553-.357.978-.307 2.049-.746 2.995-.439.947-1.687 1.774-2.74 1.31a2.203 2.203 0 0 1-1.123-1.541 4.406 4.406 0 0 0-.689-1.78 1.5 1.5 0 0 0-1.881-.382c-.928.708.263 2.249-.539 3.064a1.52 1.52 0 0 1-1.449.282 3.615 3.615 0 0 1-1.298-.758 16.92 16.92 0 0 1-5.517-7.927 3.493 3.493 0 0 0-.49-1.116 1.34 1.34 0 0 0-1.153-.538 1.374 1.374 0 0 0-1.047 1.485c0 1.798 1.316 3.365 2.583 4.787l4.358 4.919 1.981 2.287 8.521 1.88 5.762-1.19.22-1.366Z"/><path fill="#fff" d="M221.831 197.256c1.053-1.053 2.508-1.68 1.762-2.902-.214.414-1.254.401-1.624.721-.37.319-1.38-.057-1.881-.188a1.288 1.288 0 0 1-.909-1.335 3.338 3.338 0 0 1 .677-1.548c.66-.985 1.35-1.948 2.069-2.888.297-.313.513-.694.627-1.109a.903.903 0 0 0-.627-1.009 1.635 1.635 0 0 0-1.179.294c-1.567.884-3.091 2.005-3.668 3.553-.357.978-.307 2.049-.746 2.995-.439.947-1.687 1.774-2.74 1.31a2.203 2.203 0 0 1-1.123-1.541 4.406 4.406 0 0 0-.689-1.78 1.5 1.5 0 0 0-1.881-.382c-.928.708.263 2.249-.539 3.064a1.52 1.52 0 0 1-1.449.282 3.615 3.615 0 0 1-1.298-.758 16.92 16.92 0 0 1-5.517-7.927 3.493 3.493 0 0 0-.49-1.116 1.34 1.34 0 0 0-1.153-.538 1.374 1.374 0 0 0-1.047 1.485c0 1.798 1.316 3.365 2.583 4.787l4.358 4.919 1.981 2.287 8.521 1.88 5.762-1.19.22-1.366Z" opacity=".6"/><path fill="#FC8019" d="M224.251 200.583a3.18 3.18 0 0 1 2.508-2.425 5.418 5.418 0 0 0 1.292-.307c.388-.194.627-.627.407-.978-.219-.351-.784-.294-1.222-.232l-2.985.427 2.408-2.413c.313-.313.627-.752.42-1.122-.207-.369-.803-.369-1.254-.288a6.727 6.727 0 0 0-3.95 2.193c-.847 1.003-1.323 2.256-2.402 3.071a4.39 4.39 0 0 1-3.624.702 3.763 3.763 0 0 1-2.665-2.256 3.399 3.399 0 0 0-.595-1.329c-.684-.683-2.082-.388-2.678.351a3.518 3.518 0 0 0-.526 2.62c-2.734-3.56-5.794-7.288-10.365-8.855a5.356 5.356 0 0 0-2.508-.351 2.073 2.073 0 0 0-1.8 1.417c-.163.864.627 1.654 1.418 2.161 1.561.972 3.473 1.392 5.16 2.181 1.686.79 3.517 1.968 3.411 3.635 0 0 8.226 1.253 12.302 1.353 4.075.1 7.248.445 7.248.445Z"/><path fill="#fff" d="M224.251 200.583a3.18 3.18 0 0 1 2.508-2.425 5.418 5.418 0 0 0 1.292-.307c.388-.194.627-.627.407-.978-.219-.351-.784-.294-1.222-.232l-2.985.427 2.408-2.413c.313-.313.627-.752.42-1.122-.207-.369-.803-.369-1.254-.288a6.727 6.727 0 0 0-3.95 2.193c-.847 1.003-1.323 2.256-2.402 3.071a4.39 4.39 0 0 1-3.624.702 3.763 3.763 0 0 1-2.665-2.256 3.399 3.399 0 0 0-.595-1.329c-.684-.683-2.082-.388-2.678.351a3.518 3.518 0 0 0-.526 2.62c-2.734-3.56-5.794-7.288-10.365-8.855a5.356 5.356 0 0 0-2.508-.351 2.073 2.073 0 0 0-1.8 1.417c-.163.864.627 1.654 1.418 2.161 1.561.972 3.473 1.392 5.16 2.181 1.686.79 3.517 1.968 3.411 3.635 0 0 8.226 1.253 12.302 1.353 4.075.1 7.248.445 7.248.445Z" opacity=".8"/><path fill="#3D3D3D" d="M194.104 205.734a3.132 3.132 0 0 1-1.185-.201 9.01 9.01 0 0 1-2.615-1.253 8.859 8.859 0 0 1-2.088-2.024 3.065 3.065 0 0 1-.595-1.04 16.406 16.406 0 0 0 2.865 2.801 16.753 16.753 0 0 0 3.618 1.717ZM192.549 207.213a3.132 3.132 0 0 1-1.185-.201 9.126 9.126 0 0 1-4.709-3.29 3.198 3.198 0 0 1-.595-1.04 16.837 16.837 0 0 0 2.871 2.801 16.592 16.592 0 0 0 3.618 1.73ZM247.67 200.978a1.593 1.593 0 0 1-.163.489c-.18.432-.389.85-.627 1.253a15.88 15.88 0 0 1-2.797 3.628 15.66 15.66 0 0 1-3.718 2.676c-.405.218-.824.408-1.254.57a1.63 1.63 0 0 1-.489.144c0-.056.627-.338 1.649-.915a18.163 18.163 0 0 0 6.427-6.222c.627-.99.934-1.642.972-1.623ZM250.692 202.269a3.398 3.398 0 0 1-.414 1.115 11.318 11.318 0 0 1-3.762 4.261 3.54 3.54 0 0 1-1.047.552 28.5 28.5 0 0 0 2.953-2.657 26.756 26.756 0 0 0 2.27-3.271Z"/><path fill="#FFBF9D" d="m235.594 160.987 5.825-1.617s4.803.727 6.044-.194c1.242-.921.627-1.454.627-1.454 2.621-.99 1.687-2.149 1.687-2.149s2.602-.201 2.652-2.25c0-1.197-9.932-3.177-9.932-3.177a2.97 2.97 0 0 1 1.11-2.018c1.016-.727 6.897.683 8.684.138a2.3 2.3 0 0 0 1.674-2.318s-12.314-2.507-14.91-1.423-15.048 6.266-16.93 8.773l4.139 8.635c.759.269 1.531.499 2.313.689 2.082.564 7.017-1.635 7.017-1.635Z"/><path fill="#FF9A6C" d="M228.903 158.85c0-.044.483-.038 1.323-.151a10.456 10.456 0 0 0 3.405-1.09 9.952 9.952 0 0 0 2.019-1.404c.337-.306.654-.635.947-.983.308-.403.641-.786.997-1.147a2.224 2.224 0 0 1 1.567-.671 9.29 9.29 0 0 1 1.668.232c1.104.232 2.182.627 3.286.439a3.568 3.568 0 0 0 1.912-.834c.514-.419.828-1.127.564-1.566l.157.119a88.203 88.203 0 0 0-8.841-1.548l-2.596-.382a3.778 3.778 0 0 1-.928-.194c.317-.041.637-.041.953 0 .627.044 1.499.119 2.609.225 3.003.264 5.985.722 8.928 1.373h.107l.056.087a1.438 1.438 0 0 1 .057 1.254 2.55 2.55 0 0 1-.709.983 4.105 4.105 0 0 1-2.2.965c-.607.07-1.22.044-1.819-.075l-1.649-.376a7.85 7.85 0 0 0-1.555-.232 1.678 1.678 0 0 0-1.254.52c-.346.341-.671.703-.972 1.084-.311.363-.651.7-1.015 1.009a9.863 9.863 0 0 1-5.694 2.369 3.77 3.77 0 0 1-1.323-.006Z"/><path fill="#FF9A6C" d="M240.81 154.037c.138.044-.144 1.21-.777 2.507-.633 1.297-1.367 2.268-1.486 2.193-.119-.075.382-1.134.997-2.425.614-1.291 1.122-2.325 1.266-2.275ZM247.569 157.484c0 .144-1.642-.044-3.63-.263-1.988-.22-3.599-.395-3.593-.546.006-.15 1.649-.219 3.656 0 2.006.22 3.592.665 3.567.809ZM250.56 155.679c0 .15-2.082 0-4.602-.382-2.521-.382-4.546-.765-4.527-.915.019-.15 2.081 0 4.602.382 2.521.382 4.546.771 4.527.915ZM242.302 147.32c.145 0 .257.752.145 1.667-.113.915-.395 1.616-.54 1.579-.144-.038-.1-.765 0-1.648.101-.884.239-1.604.395-1.598Z"/><path fill="#FFBF9D" d="m173.105 150.133 17.055 9.03 33.294-6.461 4.728 9.788s-30.429 13.322-38.925 13.467c-8.496.144-23.939-9.864-23.939-9.864l7.787-15.96Z"/><path fill="#FC8019" d="M214.231 159.627s-4.044-.783-4.772 2.237c-.727 3.02 2.891 3.76 2.891 3.76s-.665 2.086 2.828 3.177c3.492 1.09 4.182-2.701 4.182-2.701s3.285 1.078 3.53-1.04c.37-3.133-2.182-3.39-2.182-3.39s2.508-3.071-1.599-4.287c-4.107-1.215-4.878 2.244-4.878 2.244Zm4.389-.896c2.376.501.815 3.465.815 3.465s2.69.627 2.157 2.199c-.533 1.573-3.179.552-3.179.552s.972 2.707-2.288 2.738c-3.261.032-1.913-2.769-1.913-2.769s-2.646.244-3.204-2.269c-.558-2.513 4.007-1.767 4.007-1.767.119-2.13 1.204-2.651 3.586-2.149h.019Z"/><path fill="#000" d="M214.231 159.627s-4.044-.783-4.772 2.237c-.727 3.02 2.891 3.76 2.891 3.76s-.665 2.086 2.828 3.177c3.492 1.09 4.182-2.701 4.182-2.701s3.285 1.078 3.53-1.04c.37-3.133-2.182-3.39-2.182-3.39s2.508-3.071-1.599-4.287c-4.107-1.215-4.878 2.244-4.878 2.244Zm4.389-.896c2.376.501.815 3.465.815 3.465s2.69.627 2.157 2.199c-.533 1.573-3.179.552-3.179.552s.972 2.707-2.288 2.738c-3.261.032-1.913-2.769-1.913-2.769s-2.646.244-3.204-2.269c-.558-2.513 4.007-1.767 4.007-1.767.119-2.13 1.204-2.651 3.586-2.149h.019Z" opacity=".3"/><path fill="#FC8019" d="M214.294 158.843s-4.045-.783-4.778 2.231c-.734 3.014 2.897 3.76 2.897 3.76s-.671 2.087 2.827 3.177c3.499 1.09 4.183-2.701 4.183-2.701s3.285 1.078 3.53-1.04c.376-3.133-2.182-3.39-2.182-3.39s2.508-3.064-1.599-4.286c-4.107-1.222-4.878 2.249-4.878 2.249Zm4.389-.896c2.382.508.815 3.472.815 3.472s2.69.627 2.163 2.193c-.527 1.567-3.185.552-3.185.552s.972 2.707-2.282 2.738c-3.255.031-1.913-2.776-1.913-2.776s-2.646.251-3.21-2.262c-.564-2.513 4.013-1.767 4.013-1.767.119-2.131 1.222-2.651 3.599-2.15ZM216.137 130.827s-4.069.627-3.73 3.728c.338 3.102 4.013 2.57 4.013 2.57s.087 2.187 3.762 2.024c3.674-.163 3.003-3.967 3.003-3.967s3.461-.106 2.972-2.181c-.727-3.076-3.21-2.443-3.21-2.443s1.317-3.76-2.966-3.484c-4.282.275-3.844 3.753-3.844 3.753Zm3.8-2.331c2.408-.338 1.944 2.983 1.944 2.983s2.74-.345 2.784 1.328c.044 1.673-2.803 1.604-2.803 1.604s1.837 2.212-1.216 3.353c-3.054 1.14-2.74-1.955-2.74-1.955s-2.402 1.134-3.762-1.034c-1.361-2.168 3.135-3.027 3.135-3.027-.596-2.036.244-2.914 2.658-3.252Z"/><path fill="#000" d="M216.137 130.827s-4.069.627-3.73 3.728c.338 3.102 4.013 2.57 4.013 2.57s.087 2.187 3.762 2.024c3.674-.163 3.003-3.967 3.003-3.967s3.461-.106 2.972-2.181c-.727-3.076-3.21-2.443-3.21-2.443s1.317-3.76-2.966-3.484c-4.282.275-3.844 3.753-3.844 3.753Zm3.8-2.331c2.408-.338 1.944 2.983 1.944 2.983s2.74-.345 2.784 1.328c.044 1.673-2.803 1.604-2.803 1.604s1.837 2.212-1.216 3.353c-3.054 1.14-2.74-1.955-2.74-1.955s-2.402 1.134-3.762-1.034c-1.361-2.168 3.135-3.027 3.135-3.027-.596-2.036.244-2.914 2.658-3.252Z" opacity=".3"/><path fill="#FC8019" d="M215.924 130.075s-4.069.627-3.725 3.722c.345 3.096 4.007 2.569 4.007 2.569s.088 2.187 3.762 2.024c3.674-.162 3.01-3.96 3.01-3.96s3.461-.113 2.972-2.187c-.728-3.077-3.21-2.437-3.21-2.437s1.316-3.76-2.966-3.491c-4.283.27-3.85 3.76-3.85 3.76Zm3.8-2.337c2.414-.332 1.95 2.989 1.95 2.989s2.733-.345 2.777 1.322c.044 1.667-2.802 1.604-2.802 1.604s1.837 2.212-1.211 3.359c-3.047 1.147-2.746-1.961-2.746-1.961s-2.401 1.134-3.762-1.034c-1.361-2.169 3.141-3.052 3.141-3.052-.627-2.043.245-2.908 2.653-3.252v.025Z"/><path fill="#DEDEDE" d="M209.773 145.697s-2.571.113-2.727 1.974c-.157 1.861.57 4.906 5.016 5.571 4.445.664 5.016-4.882 5.016-4.882s-1.292-2.914-7.305-2.663Z"/><path fill="#3D3D3D" d="M212.3 150.716a5.782 5.782 0 0 0 4.671-1.736c.082-.382.107-.626.107-.626s-1.292-2.914-7.305-2.663c0 0-2.571.112-2.728 1.973.01.128.01.255 0 .383a7.79 7.79 0 0 0 5.255 2.669Z" opacity=".21"/><path fill="#DEDEDE" d="m210.262 144.487-.733 3.215a4.211 4.211 0 0 0 3.135 1.404c1.881-.101 1.881-.802 1.881-.802l.765-3.29a7.074 7.074 0 0 0-3.461-1.254c-1.8-.056-1.587.727-1.587.727ZM196.361 167.366s-1.624 1.986-.338 3.34c1.285 1.353 4.038 2.851 7.524 0 3.486-2.852-.314-6.981-.314-6.981s-3.047-1.009-6.872 3.641Z"/><path fill="#3D3D3D" d="M201.791 168.826a5.799 5.799 0 0 0 1.825-4.637c-.238-.314-.395-.495-.395-.495s-3.035-.978-6.86 3.672c0 0-1.624 1.986-.338 3.34.096.085.186.177.269.275a7.811 7.811 0 0 0 5.499-2.155Z" opacity=".21"/><path fill="#DEDEDE" d="m195.785 166.187 1.912 2.695a4.237 4.237 0 0 0 3.135-1.41c1.166-1.454.627-1.917.627-1.917l-1.944-2.77a7.103 7.103 0 0 0-3.247 1.742c-1.217 1.316-.483 1.66-.483 1.66ZM225.216 167.228s1.743 1.222 2.784.081c1.041-1.14 2.113-3.503-.483-6.197-2.595-2.695-5.749.677-5.749.677s-.621 2.562 3.448 5.439Z"/><path fill="#3D3D3D" d="M226.094 162.66a4.78 4.78 0 0 0-3.943-1.254 6.088 6.088 0 0 0-.383.358s-.627 2.562 3.449 5.439c0 0 1.743 1.222 2.784.081.073-.08.142-.163.207-.25a6.446 6.446 0 0 0-2.114-4.374Z" opacity=".21"/><path fill="#DEDEDE" d="m224.276 167.792 2.113-1.736a3.482 3.482 0 0 0-1.354-2.507c-1.254-.871-1.624-.413-1.624-.413l-2.176 1.773a5.844 5.844 0 0 0 1.63 2.576c1.173.921 1.411.307 1.411.307Z"/><path fill="#AE7461" d="M215.065 188.752s-4.427 1.767-7.392-3.847c-2.966-5.615-2.508-10.866 1.505-12.063 4.012-1.197 5.335.821 6.163 2.269.828 1.447 2.79 4.706 3.135 7.638.194 1.655-.727 5.176-3.411 6.003Z"/><path fill="#6F4439" d="M214.996 187.129a4.242 4.242 0 0 0 2.013-1.88v.038-.05l.069-.107c.042-.074.077-.151.106-.231l.038-.063-.031.056a4.7 4.7 0 0 0 .188-2.299 4.885 4.885 0 0 0-.339-1.341 1.884 1.884 0 0 0-.934-.972 1.641 1.641 0 0 0-1.461.138c-.435.273-.77.68-.953 1.159-.182.433-.257.909-.42 1.354a1.815 1.815 0 0 1-.866 1.071c-.351.163-.771.138-1.141.276a1.417 1.417 0 0 0-.84 1.642 2.09 2.09 0 0 0 1.348 1.253 4.261 4.261 0 0 0 3.223-.044ZM210.45 173.488a4.226 4.226 0 0 0-2.439 1.253v-.031.043l-.081.094a1.746 1.746 0 0 1-.17.195l-.037.062.037-.05a4.624 4.624 0 0 0-.834 2.137 4.819 4.819 0 0 0-.05 1.372c.055.461.278.885.627 1.191a1.683 1.683 0 0 0 1.449.269 2.436 2.436 0 0 0 1.254-.852c.294-.37.495-.802.765-1.19a1.792 1.792 0 0 1 1.122-.803c.382-.05.784.082 1.172.051a1.42 1.42 0 0 0 1.254-1.348 2.09 2.09 0 0 0-.953-1.598 4.27 4.27 0 0 0-3.116-.795ZM211.178 180.832c-.177.004-.351.04-.514.106l-1.016.345c-.264.094-.558.213-.627.489a.443.443 0 0 0 .163.482.62.62 0 0 0 .514.094h-.044a3.129 3.129 0 0 0 1.568-.495.966.966 0 0 0 .344-.313.437.437 0 0 0 .051-.439.493.493 0 0 0-.439-.269Z" opacity=".3"/><path fill="#fff" d="M206.87 175.593s-.106.332-.244.871a7.982 7.982 0 0 0 .106 4.311c.163.539.308.859.289.865a1.086 1.086 0 0 1-.126-.213 5.443 5.443 0 0 1-.25-.626 7.208 7.208 0 0 1-.113-4.387c.062-.213.137-.423.225-.626a.69.69 0 0 1 .113-.195ZM208.068 174.089c.031 0-.101.201-.289.395-.188.194-.351.32-.389.295-.037-.025.101-.201.289-.395.188-.194.364-.32.389-.295ZM209.14 185.864a1.802 1.802 0 0 1-.834-1.153c.147.186.283.38.408.582.154.181.297.371.426.571Z"/><path fill="#AE7461" d="M220.784 146.004s-3.48-1.629-1.812-6.454c1.667-4.825 5.016-7.463 7.912-5.765 2.897 1.698 2.458 3.578 2.057 4.862-.401 1.285-1.223 4.23-2.746 6.054-.872 1.002-3.449 2.4-5.411 1.303Z"/><path fill="#6F4439" d="M221.699 145.051a3.484 3.484 0 0 0 2.213.145h-.031H224.025c.066-.017.131-.038.194-.063h.057-.05a3.764 3.764 0 0 0 1.454-1.153c.245-.281.446-.598.596-.94.155-.339.177-.723.063-1.078a1.337 1.337 0 0 0-.891-.783 1.884 1.884 0 0 0-1.204.081c-.357.132-.677.345-1.028.495a1.431 1.431 0 0 1-1.103.088c-.295-.119-.508-.376-.79-.52a1.148 1.148 0 0 0-1.43.414 1.66 1.66 0 0 0 0 1.491 3.434 3.434 0 0 0 1.806 1.823ZM227.204 134.869a3.38 3.38 0 0 0-2.088-.74h-.37.044a3.834 3.834 0 0 0-1.712.69 3.88 3.88 0 0 0-.833.733 1.515 1.515 0 0 0-.352 1.021c.021.203.089.399.197.572.109.172.256.318.43.425.356.209.769.299 1.179.256.376-.031.746-.15 1.123-.213.377-.071.767.01 1.084.226.245.194.383.501.627.714a1.134 1.134 0 0 0 1.486 0 1.66 1.66 0 0 0 .414-1.435 3.413 3.413 0 0 0-1.229-2.249ZM223.291 139.337c-.099-.1-.216-.18-.344-.238l-.765-.408a.722.722 0 0 0-.627-.113.364.364 0 0 0-.195.364.495.495 0 0 0 .232.357c.326.303.723.519 1.154.627a.825.825 0 0 0 .37 0 .357.357 0 0 0 .288-.213.389.389 0 0 0-.113-.376Z" opacity=".3"/><path fill="#fff" d="M224 133.923s-.257.119-.627.338a6.516 6.516 0 0 0-2.477 2.438c-.219.394-.326.626-.345.626a.832.832 0 0 1 .057-.188c.062-.168.138-.332.225-.489a5.808 5.808 0 0 1 2.508-2.468c.16-.085.326-.158.496-.22.053-.017.108-.029.163-.037ZM225.543 133.797s-.176.05-.395.05c-.22 0-.383 0-.389-.062-.006-.063.176-.057.395-.05a.743.743 0 0 1 .389.062ZM219.21 140.916a1.467 1.467 0 0 1 .219-1.122 3.443 3.443 0 0 1-.119.558c-.018.19-.052.379-.1.564Z"/><path fill="#FF9A6C" d="M206.318 146.211a4.184 4.184 0 0 1-4.61-.447 4.167 4.167 0 0 1-1.362-4.424 4.174 4.174 0 0 1 3.562-2.959 4.174 4.174 0 0 1 4.44 5.34 4.176 4.176 0 0 1-2.03 2.49Z"/><path fill="#FC8019" d="M206.318 146.211a4.184 4.184 0 0 1-4.61-.447 4.167 4.167 0 0 1-1.362-4.424 4.174 4.174 0 0 1 3.562-2.959 4.174 4.174 0 0 1 4.44 5.34 4.176 4.176 0 0 1-2.03 2.49Z" opacity=".5"/><path fill="#FF9A6C" d="M205.936 145.496a4.18 4.18 0 0 1-4.659-6.892 4.182 4.182 0 0 1 6.345 1.209c.265.483.431 1.014.489 1.562a4.195 4.195 0 0 1-.149 1.63 4.177 4.177 0 0 1-2.026 2.491Z"/><path fill="#fff" d="M205.115 144.005a2.437 2.437 0 0 1-3.496-1.417 2.44 2.44 0 1 1 4.228.81 2.448 2.448 0 0 1-.732.607Z" opacity=".3"/><path fill="#FF9A6C" d="M204.695 143.209c-1.173.232-2.114-.05-2.101-.627a1.547 1.547 0 0 1 .158-1.715 1.566 1.566 0 0 1 1.044-.566c.203-.021.408-.002.603.055.195.058.377.154.536.282.158.129.289.287.387.466a1.564 1.564 0 0 1 .122 1.179 1.574 1.574 0 0 1-.283.535 1.574 1.574 0 0 1-.466.385v.006ZM228.759 148.592a3.727 3.727 0 0 1 5.233 2.379 3.716 3.716 0 0 1-1.321 3.911 3.72 3.72 0 0 1-4.12.288 3.723 3.723 0 0 1-1.485-1.565 3.727 3.727 0 0 1 1.693-5.013Z"/><path fill="#FC8019" d="M228.759 148.592a3.727 3.727 0 0 1 5.233 2.379 3.716 3.716 0 0 1-1.321 3.911 3.72 3.72 0 0 1-4.12.288 3.723 3.723 0 0 1-1.485-1.565 3.727 3.727 0 0 1 1.693-5.013Z" opacity=".5"/><path fill="#FF9A6C" d="M231.838 154.589a3.732 3.732 0 0 1-2.114.426 3.729 3.729 0 0 1-1.995-.818 3.714 3.714 0 0 1 1.96-6.577 3.716 3.716 0 0 1 2.149 6.969Z"/><path fill="#fff" d="M228.013 150.729a2.164 2.164 0 0 1 3.976-.412 2.164 2.164 0 0 1-1.265 3.094 2.17 2.17 0 0 1-2.543-1.036 2.144 2.144 0 0 1-.168-1.646Z" opacity=".3"/><path fill="#FF9A6C" d="M230.741 152.559a1.385 1.385 0 0 1-1.523-.148 1.381 1.381 0 0 1-.011-2.127 1.38 1.38 0 0 1 1.954 1.931 1.396 1.396 0 0 1-.42.344Z"/><path fill="#455A64" d="M194.644 174.929a6.366 6.366 0 0 0 2.05 5.308 5.903 5.903 0 0 0 5.254 1.503 6.547 6.547 0 0 0-6.232-6.83c-.358-.012-.716 0-1.072.038v-.019Z"/><path fill="#3D3D3D" d="M196.255 176.301c.063-.044 1.185 1.416 2.828 2.983 1.642 1.567 3.135 2.657 3.091 2.713a4.423 4.423 0 0 1-1.035-.626 20.35 20.35 0 0 1-4.213-4.055 3.867 3.867 0 0 1-.671-1.015Z"/><path fill="#455A64" d="M208.168 125.494a6.375 6.375 0 0 0-1.53 5.477 5.919 5.919 0 0 0 3.317 4.349 6.537 6.537 0 0 0-.916-9.199 6.857 6.857 0 0 0-.884-.627h.013Z"/><path fill="#3D3D3D" d="M208.676 127.575c.081 0 .107 1.842.489 4.079.382 2.237.928 4.004.853 4.023a4.59 4.59 0 0 1-.452-1.128 20.744 20.744 0 0 1-.953-5.765 4.089 4.089 0 0 1 .063-1.209Z"/><path fill="#455A64" d="M247.074 160.799a8.254 8.254 0 0 0-7.204-1.429 7.691 7.691 0 0 0-5.292 4.706 8.482 8.482 0 0 0 6.357 1.4 8.523 8.523 0 0 0 3.091-1.21 8.507 8.507 0 0 0 2.39-2.302c.256-.371.485-.76.683-1.165h-.025Z"/><path fill="#3D3D3D" d="M244.459 161.669c0 .107-2.364.307-5.21 1.034-2.847.727-5.073 1.605-5.11 1.504a5.703 5.703 0 0 1 1.417-.689 28.066 28.066 0 0 1 7.342-1.849 5.668 5.668 0 0 1 1.561 0Z"/><path fill="#455A64" d="M204.983 157.377c0 .89-1.399 1.592-3.092 1.567-1.693-.025-3.053-.777-3.041-1.654-.025.34-.025.681 0 1.021 0 .89 1.348 1.635 3.041 1.661 1.693.025 3.079-.671 3.092-1.567a9.792 9.792 0 0 0 0-1.028Z"/><path fill="#3D3D3D" d="M201.929 156.738c1.355 0 2.508.501 2.884 1.147a.928.928 0 0 0 .17-.508c0-.89-1.348-1.635-3.041-1.66-1.693-.025-3.079.67-3.091 1.573a.934.934 0 0 0 .15.513c.42-.645 1.574-1.09 2.928-1.065Z"/><path fill="#455A64" d="M223.066 149.444c.351.338.113 1.159-.533 1.83-.646.67-1.461.94-1.812.626.126.141.262.273.407.395.351.339 1.16.069 1.812-.626.652-.696.884-1.492.533-1.83a4.894 4.894 0 0 0-.407-.395Z"/><path fill="#3D3D3D" d="M221.655 150.428a1.949 1.949 0 0 1 1.561-.727.483.483 0 0 0-.137-.257c-.358-.345-1.167-.075-1.819.595-.652.671-.884 1.492-.526 1.836a.523.523 0 0 0 .263.132 1.946 1.946 0 0 1 .658-1.579Z"/><path fill="#455A64" d="M227.781 117.806c.245.695-.627 1.623-1.944 2.074-1.316.451-2.577.263-2.815-.426.069.272.162.539.276.796.238.695 1.498.883 2.809.432 1.31-.451 2.188-1.385 1.95-2.074a5.93 5.93 0 0 0-.276-.802Z"/><path fill="#3D3D3D" d="M225.241 118.157c1.054-.37 2.069-.314 2.559.075a.763.763 0 0 0 0-.439c-.239-.689-1.499-.883-2.81-.432-1.31.451-2.188 1.385-1.95 2.08a.782.782 0 0 0 .264.357c.125-.614.89-1.284 1.937-1.641Z"/><path fill="#FC8019" d="m230.465 169.032-8.678 6.994a.605.605 0 0 0-.167.182.624.624 0 0 0 .035.701 7.844 7.844 0 0 0 2.652 2.244c6.27 3.471 10.208-3.027 9.336-6.818a5.82 5.82 0 0 0-2.395-3.328.634.634 0 0 0-.396-.125.632.632 0 0 0-.387.15Z"/><path fill="#000" d="m230.465 169.032-8.678 6.994a.605.605 0 0 0-.167.182.624.624 0 0 0 .035.701 7.844 7.844 0 0 0 2.652 2.244c6.27 3.471 10.208-3.027 9.336-6.818a5.82 5.82 0 0 0-2.395-3.328.634.634 0 0 0-.396-.125.632.632 0 0 0-.387.15Z" opacity=".3"/><path fill="#FC8019" d="m230.007 168.613-8.672 6.993a.654.654 0 0 0-.125.883 7.782 7.782 0 0 0 2.652 2.244c6.27 3.471 10.208-3.027 9.336-6.818a5.834 5.834 0 0 0-2.401-3.327.628.628 0 0 0-.79.025Z"/><path fill="#000" d="M229.273 169.446c.226-.32 3.054.696 3.041 3.052-.012 2.356-.671 4.117-1.718 4.173-1.047.056-2.357-1.88-2.414-3.628a6.425 6.425 0 0 1 1.091-3.597ZM222.226 175.487c0-.464 2.401-1.761 3.988-1.467 1.586.295 3.41 2.908 3.348 3.603-.063.696-3.022 1.103-4.496.627-1.473-.476-2.859-2.087-2.84-2.763Z" opacity=".3"/><path fill="#FC8019" d="M225.097 174.766c-.194-.2-2.013 1.009-1.605 1.416.408.408 2.031-.977 1.605-1.416ZM227.48 175.737c.251-.075 1.148 1.88.483 1.88-.665 0-.74-1.805-.483-1.88ZM226.401 175.186c.314.063 0 2.607-.827 2.506-.828-.1.507-2.569.827-2.506ZM229.167 172.259c-.157-.482 2.188-1.059 2.257-.551.069.508-2.05 1.197-2.257.551ZM229.148 171.326c.263.213 1.461-.752 1.116-1.053-.345-.301-1.373.833-1.116 1.053ZM229.029 173.25c0 .194 2.081.676 2.013.263-.069-.414-1.957-.746-2.013-.263ZM228.753 174.045c-.232.37 1.034 1.78 1.36 1.479.326-.301-1.034-1.999-1.36-1.479Z"/><path fill="#fff" d="M228.27 170.311a1.16 1.16 0 0 1-.144.169c-.094.106-.239.257-.414.439a21.895 21.895 0 0 1-3.06 2.55c-.213.144-.382.257-.508.332l-.188.113s.056-.057.176-.138l.489-.351c.414-.301.972-.721 1.567-1.222a30.435 30.435 0 0 0 1.48-1.322l.439-.42c.05-.055.104-.105.163-.15Z"/><path fill="#FC8019" d="M146.226 119.015s8.74 6.943 11.518 11.279c2.777 4.337 25.018 19.426 24.704 19.99-.313.564-13.587 22.446-13.587 22.446l-7.38-3.723-15.255-49.202M115.163 199.981s-16.578 26.137-18.252 36.094l18.252 7.469v-43.563Z"/><path fill="#FC8019" d="M104.153 115.399c0 .658-3.135 8.873-3.135 8.873l-16.27 17.903 31.387 51.076 3.135 7.72 48.318-2.788s-6.897-36.626-7.393-42.705c-.495-6.078-13.969-36.463-13.969-36.463l-16.303 1.805-4.765-1.642-21.005-3.779Z"/><path fill="#3D3D3D" d="M114.16 200.232c-.627-.244-3.762 10.302-9.135 29.59-5.374 19.287-1.693 58.696-1.693 58.696h83.33s-5.512-43.632-12.716-64.85c-7.104-20.936-6.728-34.088-8.308-33.957-1.58.132-51.478 10.521-51.478 10.521ZM162.597 170.787a.483.483 0 0 1-.044-.138l-.094-.42c-.076-.363-.188-.902-.351-1.598a61.019 61.019 0 0 0-1.656-5.777 55.296 55.296 0 0 0-3.461-8.203 89.515 89.515 0 0 0-5.988-9.13 99.681 99.681 0 0 0-13.249-14.744c-1.881-1.711-3.511-2.958-4.633-3.835l-1.323-.959-.345-.257c-.075-.062-.113-.094-.107-.1l.126.069.363.232 1.361.915a60.433 60.433 0 0 1 4.715 3.759 94.722 94.722 0 0 1 13.356 14.726 85.882 85.882 0 0 1 5.987 9.174 57.658 57.658 0 0 1 4.979 14.099c.144.696.238 1.253.295 1.617 0 .169.044.307.062.42.013.049.015.1.007.15Z"/><path fill="#FC8019" d="M84.76 142.175s-3.067 3.534-1.944 11.499c1.122 7.964 14.095 44.045 14.095 44.045l28.441-9.581-15.048-29.952-10.446-13.078-15.098-2.933Z"/><path fill="#3D3D3D" d="M161.481 163.142s-.05-.094-.101-.282l-.232-.821c-.2-.764-.476-1.786-.808-3.02a207.491 207.491 0 0 0-2.96-9.882 176.8 176.8 0 0 0-3.524-9.706c-.47-1.191-.859-2.175-1.153-2.908-.12-.313-.226-.576-.308-.796a.924.924 0 0 1-.087-.282s.062.082.15.257c.088.176.22.464.364.771.307.67.74 1.654 1.254 2.876a136.165 136.165 0 0 1 3.618 9.688 138.804 138.804 0 0 1 2.89 9.926c.314 1.284.558 2.331.709 3.051.069.332.119.627.169.84.015.095.021.192.019.288ZM96.911 197.719l.132-.056.395-.144 1.555-.552 5.856-2.017 20.459-6.962-.087.213c-2.433-4.787-5.104-10.026-7.894-15.547-1.48-2.92-2.929-5.771-4.321-8.528-.67-1.397-1.467-2.682-2.188-3.979a131.182 131.182 0 0 0-2.176-3.76 72.968 72.968 0 0 0-4.389-6.73 27.8 27.8 0 0 0-2.376-2.744 14.187 14.187 0 0 0-2.633-2.049 18.34 18.34 0 0 0-5.299-2.206 18.672 18.672 0 0 0-4.313-.545 19.86 19.86 0 0 0-2.747.175l-.708.113a1 1 0 0 1-.245 0 .978.978 0 0 1 .238-.057l.703-.144a18.347 18.347 0 0 1 2.758-.238c1.468-.009 2.93.158 4.358.495a18.212 18.212 0 0 1 5.374 2.187c.976.577 1.879 1.269 2.69 2.062.865.866 1.671 1.79 2.414 2.763a72.738 72.738 0 0 1 4.445 6.736c.727 1.22 1.457 2.474 2.188 3.76.728 1.297 1.53 2.594 2.195 3.986l4.333 8.528c2.783 5.508 5.448 10.765 7.875 15.559l.081.157-.169.056-20.491 6.843-5.887 1.936-1.568.501-.407.126a.457.457 0 0 1-.15.062ZM123.866 135.934c-.044.082-5.166-2.506-11.443-5.708-6.276-3.203-11.33-5.916-11.286-5.997.044-.082 5.167 2.475 11.443 5.708 6.276 3.234 11.324 5.922 11.286 5.997ZM130.042 121.233c.315 2.002.524 4.018.627 6.041.209 2.015.307 4.04.295 6.066a57.728 57.728 0 0 1-.627-6.041 56.11 56.11 0 0 1-.295-6.066ZM137.623 132.488l-.201.081-.595.188c-.521.163-1.292.42-2.283.758-1.975.671-4.809 1.717-8.251 3.133-3.442 1.417-7.524 3.234-11.963 5.364a32.16 32.16 0 0 0-3.386 1.636 2.86 2.86 0 0 0-1.167 1.403 2.591 2.591 0 0 0 .113 1.836c.508 1.204 1.562 2.125 2.508 3.134l1.424 1.541 1.379 1.617a89.354 89.354 0 0 1 5.016 6.667 124.84 124.84 0 0 1 4.145 6.555c2.508 4.261 4.527 8.221 6.163 11.58a216.858 216.858 0 0 1 3.718 8.027l.947 2.205c.101.239.182.433.239.577a.965.965 0 0 1 .075.2.632.632 0 0 1-.101-.188l-.269-.564-1.041-2.13a338.522 338.522 0 0 0-3.806-7.977 176.893 176.893 0 0 0-6.22-11.53c-1.254-2.118-2.621-4.317-4.144-6.523a82.948 82.948 0 0 0-4.985-6.636l-1.367-1.617-1.423-1.529c-.916-1.021-2.001-1.942-2.559-3.246a2.924 2.924 0 0 1-.106-2.061 3.136 3.136 0 0 1 1.254-1.561 34.124 34.124 0 0 1 3.43-1.654 227.832 227.832 0 0 1 12.007-5.301c3.467-1.404 6.314-2.419 8.301-3.058a75.896 75.896 0 0 1 2.302-.696l.627-.156.219-.075Z"/><path fill="#000" d="M124.004 154.896a2.175 2.175 0 1 0 .001-4.351 2.175 2.175 0 0 0-.001 4.351ZM144.382 146.474a2.175 2.175 0 1 0 .001-4.351 2.175 2.175 0 0 0-.001 4.351ZM137.623 173.807a2.176 2.176 0 1 1-4.185-.828 2.18 2.18 0 0 1 2.015-1.34 2.177 2.177 0 0 1 2.17 2.168ZM155.612 169.058a2.175 2.175 0 1 0 0-4.35 2.175 2.175 0 0 0 0 4.35Z" opacity=".3"/><path fill="#FF9A6C" d="M170.842 200.715c.51.048 1.012.164 1.492.344.505.086.997.24 1.461.458a2.871 2.871 0 0 1-1.549-.138 2.828 2.828 0 0 1-1.404-.664Z"/><path fill="#FFBF9D" d="M101.4 196.209c.107.564 9.268 13.535 16.591 13.535 7.324 0 43.414-10.809 43.414-10.809l-4.176-11.179-36.115 5.427-1.781-3.014-17.933 6.04Z"/><path fill="#FFBF9D" d="M157.229 187.756c.189-.157 6.898-3.052 10.591-3.86 3.693-.808 6.119-.47 8.558.815 2.439 1.284 7.782 2.744 8.942 3.935.884.896.075 2.469-1.568 2.306-1.643-.163-7.95-1.567-8.088-1.554 0 0-.057.069-.094.175a2.17 2.17 0 0 0 .583 2.294l4.282 4.01s.057 1.792-1.122 2.124c-.74.212-1.458.493-2.145.84 0 0-.482 2.419-2.351 2.626-1.868.206-7.555-1.611-7.831-1.648l-5.581-.884-4.176-11.179Z"/><path fill="#FF9A6C" d="M172.955 197.895c.712.146 1.413.336 2.101.57.715.133 1.421.313 2.113.539a4.866 4.866 0 0 1-2.195-.219 4.915 4.915 0 0 1-2.019-.89Z"/><path fill="#FFBF9D" d="m164.942 199.186 6.082 2.826c.412.25.893.362 1.373.319.709-.144 1.097-.877 1.392-1.535"/><path fill="#3D3D3D" d="M105.62 64.975c6.27-4.825 12.653-5.677 20.692-5.552 4.539.069 5.241-2.507 8.483-1.554a14.336 14.336 0 0 1 7.994 5.64c2.214 3.333 4.045 7.049 4.358 11.028.32 4.092.627 8.209.201 12.288v.12a14.169 14.169 0 0 1-12.164 12.4l-2.577.357c-5.794 0-11.663 0-17.262-1.472-5.599-1.473-8.233 13.497-10.346 8.146-7.185-18.14-5.75-36.52.621-41.401Z"/><path fill="#FFBF9D" d="m128.838 61.159-4.182-.627-16.302 5.878a4.473 4.473 0 0 0-4.389 4.18l1.254 45.185 20.064 12.633v6.893l5.135-1.711-2.357-5.884v-9.662s10.784-.702 13.901-13.21c1.548-6.222 2.132-16.593 2.332-25.065.182-7.657-6.007-18.278-15.456-18.61Z"/><path fill="#3D3D3D" d="M138.244 90.165a1.627 1.627 0 0 1-1.712 1.504 1.552 1.552 0 0 1-1.447-1 1.552 1.552 0 0 1-.102-.61 1.634 1.634 0 0 1 1.706-1.504 1.567 1.567 0 0 1 1.555 1.61ZM141.278 83.918c-.219.194-1.373-.821-3.135-.971-1.762-.15-3.135.626-3.285.388-.088-.106.156-.47.746-.827a4.49 4.49 0 0 1 2.652-.57c.91.076 1.773.438 2.464 1.034.514.463.665.864.558.946ZM129.566 97.315c0-.1 1.11-.194 2.89-.27.452 0 .885-.056.985-.357a2.304 2.304 0 0 0-.182-1.347l-1.028-3.521c-1.417-5.013-2.402-9.105-2.195-9.155.207-.05 1.511 3.953 2.928 8.96l.972 3.528c.234.564.26 1.192.075 1.773a1.129 1.129 0 0 1-.79.596 3.026 3.026 0 0 1-.771.037c-1.781-.056-2.884-.144-2.884-.244Z"/><path fill="#FF9A6C" d="M128.08 118.05a32.402 32.402 0 0 1-16.603-6.003s3.762 9.186 16.571 9.099l.032-3.096Z"/><path fill="#3D3D3D" d="M140.877 77.758c-.332.407-1.649 0-3.229 0s-2.909.288-3.223-.125c-.132-.2.075-.627.627-.984a5.02 5.02 0 0 1 5.198.1c.583.407.771.815.627 1.01ZM118.756 88.912a1.64 1.64 0 0 0 1.492 1.723 1.567 1.567 0 0 0 1.756-1.385 1.64 1.64 0 0 0-1.492-1.723 1.566 1.566 0 0 0-1.571.794c-.1.183-.163.384-.185.591ZM117.558 82.49c.195.218 1.474-.627 3.23-.54 1.755.088 2.997 1.028 3.197.827.101-.094-.088-.488-.627-.92a4.505 4.505 0 0 0-2.552-.928 4.392 4.392 0 0 0-2.583.695c-.558.389-.759.765-.665.865ZM118.794 76.906c.326.413 1.699.069 3.329.125 1.63.057 2.997.42 3.336 0 .144-.194-.05-.626-.627-1.015a5.084 5.084 0 0 0-2.678-.783 4.95 4.95 0 0 0-2.696.67c-.602.401-.809.802-.664 1.003Z"/><path fill="#FFBF9D" d="M105.501 92.014c.081-.947-.821-3.271-1.743-3.497-2.458-.626-6.966-.796-7.524 5.527-.81 8.641 9.261 7.519 9.305 7.275.043-.244-.314-6.072-.038-9.305Z"/><path fill="#FF9A6C" d="M102.203 98.092c-.038 0-.163.088-.426.182-.373.12-.777.09-1.129-.082-.884-.42-1.517-1.942-1.41-3.502a4.956 4.956 0 0 1 .626-2.118 1.738 1.738 0 0 1 1.254-1.047.772.772 0 0 1 .853.495c.094.25 0 .42.063.439.062.019.2-.126.163-.489a.974.974 0 0 0-.289-.576 1.152 1.152 0 0 0-.808-.301 2.137 2.137 0 0 0-1.7 1.197 5.181 5.181 0 0 0-.752 2.362c-.107 1.742.627 3.459 1.85 3.935a1.635 1.635 0 0 0 1.398-.1c.257-.188.307-.376.307-.395Z"/><path fill="#3D3D3D" d="m103.407 88.774 2.125 2.35c9.794-8.773 29.1-30.968 28.015-29.646 0 0-6.427-2.882-13.531-1.88-7.104 1.003-20.628 4.092-20.691 12.427-.063 8.334 4.082 16.75 4.082 16.75Z"/><path fill="#FC8019" d="M144.802 68.66c-.733-1.599.069-3.541 1.436-4.72 1.367-1.177 3.185-1.766 4.954-2.292 1.768-.527 3.592-1.034 5.053-2.119 2.891-2.143 3.656-6.021 3.254-9.462-.771-6.573-5.066-12.532-10.772-16.367-5.705-3.835-12.665-5.753-19.694-6.335-14.547-1.203-27.658 3.829-38.806 12.74a8.26 8.26 0 0 0-3.072 5.965c-.082 1.785.972 3.434 2.063 4.9 3.354 4.518 7.292 7.638 11.913 11.022l-1.298 7.382 44.969-.715Z"/><path fill="#3D3D3D" d="M155.38 46.884c-.126.204-.28.39-.458.552-.459.451-.949.87-1.467 1.253-.659.495-1.474 1.028-2.402 1.591-.928.564-1.943 1.153-2.965 1.88a14.566 14.566 0 0 0-2.621 2.231 9.06 9.06 0 0 0-1.524 2.363 8.65 8.65 0 0 0-.583 2.506 2.228 2.228 0 0 1-.044-.714 6.192 6.192 0 0 1 .414-1.88 8.64 8.64 0 0 1 1.511-2.47 13.814 13.814 0 0 1 2.684-2.318c1.034-.702 2.069-1.29 2.997-1.842.928-.551 1.749-1.053 2.414-1.516 1.316-.897 2-1.674 2.044-1.636ZM148.301 39.509c.037.063-1.028.676-2.508 1.967-.37.326-.771.683-1.166 1.103-.395.42-.816.871-1.254 1.36a24.523 24.523 0 0 0-2.371 3.484 23.922 23.922 0 0 0-1.661 3.866c-.182.627-.376 1.21-.483 1.774-.107.564-.232 1.09-.307 1.579-.295 1.942-.245 3.17-.314 3.17a5.104 5.104 0 0 1-.05-.864 8.086 8.086 0 0 1 0-1.01c0-.388.038-.839.113-1.328.062-.538.152-1.074.27-1.604.106-.576.288-1.172.464-1.81a20.9 20.9 0 0 1 4.088-7.451c.445-.489.852-.959 1.254-1.36.401-.401.827-.77 1.21-1.084.339-.29.693-.561 1.06-.815a7.39 7.39 0 0 1 .846-.557c.254-.169.525-.31.809-.42ZM131.986 36.15c.012.268-.003.537-.044.802-.05.508-.113 1.254-.182 2.162-.366 4.768-.2 9.562.496 14.293.131.903.25 1.642.332 2.144.057.261.091.528.1.795a3.568 3.568 0 0 1-.225-.77 33.298 33.298 0 0 1-.433-2.137 52.194 52.194 0 0 1-.502-14.344c.101-.915.201-1.654.289-2.162a3.62 3.62 0 0 1 .169-.783ZM121.339 32.935c.031.334.031.67 0 1.003v2.738c.04 3.005.25 6.005.627 8.986a79.075 79.075 0 0 0 1.725 8.855c.282 1.115.526 2.024.702 2.644.107.318.185.645.232.977a7.164 7.164 0 0 1-.358-.94 47.509 47.509 0 0 1-.796-2.625 64.709 64.709 0 0 1-2.332-17.897c0-1.159.05-2.099.1-2.744.007-.334.041-.668.1-.997ZM101.237 40.292c.245.204.469.43.671.677.42.445 1.003 1.115 1.706 1.949a86.24 86.24 0 0 1 9.599 14.105c.514.965.922 1.748 1.185 2.306.151.277.279.566.383.865a4.26 4.26 0 0 1-.496-.809 142.12 142.12 0 0 1-1.254-2.25 114.515 114.515 0 0 0-4.514-7.218 115.236 115.236 0 0 0-5.06-6.855l-1.618-2.012a5.11 5.11 0 0 1-.602-.758Z"/><path fill="#FC8019" d="M100.172 83.235c-2.395-8.146-1.135-13.861.432-19.689 0 0 19.356-11.542 35.307-7.895 0 0 9.964 1.999 11.249 7.168l.282 17.596s-1.085-6.962-15.594-7.52c-14.509-.557-31.676 10.34-31.676 10.34Z"/><path fill="#FF9A6C" d="M122.117 101.513c.124-.56.45-1.055.915-1.391a2.405 2.405 0 0 1 2.929.044 3.23 3.23 0 0 1 1.009 3.102 2.957 2.957 0 0 1-2.182 1.065h-.395a2.614 2.614 0 0 1-1.724-.827 2.322 2.322 0 0 1-.552-1.993Z"/><path fill="#3D3D3D" d="M123.402 98.694c.251 0 .044 1.673 1.317 3.032 1.273 1.36 3.066 1.404 3.047 1.636 0 .106-.433.276-1.185.2a4.173 4.173 0 0 1-2.558-1.253 3.61 3.61 0 0 1-.997-2.506c.025-.746.263-1.135.376-1.11ZM146.721 62.882a2.396 2.396 0 0 1-.257-.439c-.088-.144-.163-.338-.301-.538-.138-.201-.295-.44-.464-.702a11.801 11.801 0 0 0-4.082-3.384 22.537 22.537 0 0 0-7.581-2.256 36.264 36.264 0 0 0-9.718 0c-1.67.222-3.325.548-4.954.978-1.58.407-3.072.915-4.502 1.39a134.667 134.667 0 0 0-7.486 2.777c-2.107.852-3.8 1.579-4.972 2.08l-1.348.577a3.082 3.082 0 0 1-.477.181c.142-.096.294-.177.452-.244l1.323-.627a142.557 142.557 0 0 1 4.934-2.174c2.101-.877 4.627-1.88 7.48-2.851 1.424-.483 2.922-.997 4.515-1.41a39.712 39.712 0 0 1 5.016-.997 36.093 36.093 0 0 1 9.806 0c2.67.323 5.26 1.119 7.65 2.35a11.509 11.509 0 0 1 4.069 3.522c.17.263.314.508.445.72.103.181.195.367.276.558.074.157.133.321.176.489Z"/></g><defs><clipPath id="a"><path fill="#fff" d="M0 0h302v289H0z"/></clipPath></defs></svg>